<svg id="Layer_1" data-name="Layer 1" xmlns="http://www.w3.org/2000/svg" viewBox="0 0 240.42 230.97"><defs><style>.cls-1{fill:#949494;}.cls-2{fill:#dadada;}.cls-3{stroke:#000;stroke-miterlimit:10;}</style></defs><path class="cls-1" d="M188.41,425.65c8.16,1.31,16.51-1.11,23.91-4.77s14.14-8.55,21.32-12.63,15.08-7.41,23.34-7.5,19.92,3.08,24,10.27a38.8,38.8,0,0,0-53.23-21.79c-16,7.65-24.81,25-38.73,36" transform="translate(-185.92 -280.21)"/><path d="M187.75,428.06c15.27,2.33,28.49-6.14,40.86-13.87,5.9-3.68,11.95-7.28,18.64-9.33a34.38,34.38,0,0,1,17.49-.81c5.26,1.15,11.28,3.45,14.07,8.23,1.38,2.37,5.57.8,4.57-1.93A41.42,41.42,0,0,0,222.1,389.5c-6.48,4.12-11.84,9.7-16.9,15.41-5.7,6.44-11.18,13.16-17.95,18.53a2.52,2.52,0,0,0,0,3.54,2.56,2.56,0,0,0,3.53,0c11.34-9,18.9-21.84,30.34-30.7a38.1,38.1,0,0,1,20.54-8.2,36.31,36.31,0,0,1,36.9,23.6l4.57-1.92c-2.86-4.92-8.13-7.82-13.39-9.53a39.12,39.12,0,0,0-17.81-1.55c-15,2.21-26.61,12.68-39.64,19.42-7,3.64-15.2,6.36-23.22,5.14A2.57,2.57,0,0,0,186,425a2.52,2.52,0,0,0,1.75,3.08Z" transform="translate(-185.92 -280.21)"/><path class="cls-1" d="M303.56,391.72a76.91,76.91,0,0,0-89.3-50.82,80.58,80.58,0,0,1,40.84,18.27c11.53,9.78,20.41,26.72,24.9,41.16.79,7.31,0,4.06,1.11,10,.62,3.3,2.11,6.6,4.88,8.5,3.39,2.31,7.83,2.15,11.93,1.9l55.16-3.34.75-1.29c11.95-29.45,38.79-51.88,70.05-57.54h0a62.88,62.88,0,0,0-42.51-6.68c-14.37,2.87-32.12,11.87-41.2,23.37l-4.28,9.66c7.71-11.51,15.29-66.56,3.06-102.13-10.16,7-19.36,22.32-20.18,34.64-4.62-14.36-8.64-21-16.84-33.65h0c-6.3,25.82-10.44,60.9-8.47,87.4" transform="translate(-185.92 -280.21)"/><path d="M306,391.06a79.37,79.37,0,0,0-65.67-53.75,79.65,79.65,0,0,0-26.71,1.18c-2.29.49-2.47,4.47,0,4.82,18.47,2.61,36.76,11.73,48.27,26.67a97.49,97.49,0,0,1,13.48,24.54,55.44,55.44,0,0,1,2.14,6.12,24.86,24.86,0,0,1,.43,4.66,30.22,30.22,0,0,0,1.42,8.12c1.59,4.7,5,8.35,9.94,9.42s10.5.25,15.61-.06l34.54-2.09,8.69-.52,4-.24c1.5-.1,2.52-.29,3.34-1.64a48.53,48.53,0,0,0,2.32-5q1.32-2.85,2.82-5.59a93.39,93.39,0,0,1,15-20.35,92,92,0,0,1,42.84-25.06q3-.78,6.12-1.33c2.14-.4,2.38-3.58.6-4.57a65.83,65.83,0,0,0-48.43-6,85.74,85.74,0,0,0-21.1,8.85c-6.3,3.68-12.4,8.23-17,14-1.23,1.54-1.85,3.59-2.65,5.38l-2.24,5.05a2.5,2.5,0,0,0,4.32,2.53c2.31-3.49,3.53-7.81,4.59-11.81a146.39,146.39,0,0,0,3.51-18.82,199.94,199.94,0,0,0,.68-47.34,121.53,121.53,0,0,0-5.47-26.08c-.48-1.41-2.27-2.48-3.67-1.5a51.47,51.47,0,0,0-14.49,16.23c-3.68,6.26-6.4,13.29-6.93,20.57l4.91-.66a117.77,117.77,0,0,0-7.25-17.91c-2.92-5.66-6.39-11-9.85-16.34-1.12-1.73-4-1.58-4.57.6a319.67,319.67,0,0,0-9,69.54c-.11,6.18,0,12.36.45,18.52a2.57,2.57,0,0,0,2.5,2.5,2.52,2.52,0,0,0,2.5-2.5,233.59,233.59,0,0,1,.24-33.67,335.64,335.64,0,0,1,4.34-34.9q1.62-9.13,3.8-18.16l-4.57.59c3.39,5.25,6.8,10.5,9.69,16a110.67,110.67,0,0,1,6.9,17,2.51,2.51,0,0,0,4.91-.67c.46-6.38,3-12.58,6.25-18a45.57,45.57,0,0,1,12.69-14.44l-3.67-1.49c5,14.72,6.43,30.55,6.34,46-.07,13.93-1.25,27.9-4.52,41.42a75,75,0,0,1-2.32,7.93c-.19.52-.4,1-.6,1.55-.05.12-.19.44.05-.11-.05.13-.11.26-.17.38l-.3.67a18.89,18.89,0,0,1-1.29,2.33l4.32,2.53c1.36-3.07,2.86-6.12,4.1-9.24.05-.14.11-.27.17-.4-.26.55.13-.14.28-.32.3-.36.61-.72.92-1.07a50.66,50.66,0,0,1,3.58-3.6,61.93,61.93,0,0,1,8.35-6.33c12.38-7.9,27-12.79,41.77-11.89a60.32,60.32,0,0,1,25.4,7.39l.6-4.56a94,94,0,0,0-35.72,14.74,99.76,99.76,0,0,0-27.18,27.53,95.11,95.11,0,0,0-5.44,9.37c-.83,1.64-1.62,3.31-2.35,5l-.56,1.32-.27.64c-.08.2-.24.47-.05.13-.23.42-.49.84-.73,1.25l2.16-1.24-43.23,2.62-10.44.63c-2.89.18-6,.54-8.81-.09a8.14,8.14,0,0,1-5.79-4.38,22.7,22.7,0,0,1-1.79-6.8c-.13-.79,0,.4,0-.25,0-.22,0-.43-.05-.64,0-.55-.05-1.1-.08-1.65q-.11-1.53-.27-3.06a20.11,20.11,0,0,0-1.11-4.43,115.64,115.64,0,0,0-6.86-15.94,93.6,93.6,0,0,0-9.81-15.17,66.09,66.09,0,0,0-12.39-11.82,82.58,82.58,0,0,0-37.5-15.39v4.82a75.8,75.8,0,0,1,44,3.92,74,74,0,0,1,31.78,25,75.31,75.31,0,0,1,10.47,20.17c1,3,5.85,1.73,4.82-1.33Z" transform="translate(-185.92 -280.21)"/><path class="cls-1" d="M318.67,317.51a150.39,150.39,0,0,1,5.25,56.38" transform="translate(-185.92 -280.21)"/><path d="M316.26,318.18a149.51,149.51,0,0,1,5.16,55.71,2.52,2.52,0,0,0,2.5,2.5,2.55,2.55,0,0,0,2.5-2.5,153.48,153.48,0,0,0-5.34-57c-.89-3.09-5.71-1.77-4.82,1.33Z" transform="translate(-185.92 -280.21)"/><path class="cls-2" d="M266,414.5c-1.75,13.18-5.13,35.47-3,48.6s13.23,37.7,26.53,37.39c25.3-.58,26.75,0,26.7-.16s0-.05,0-.05l29.34.22c16.55,0,24.35-23.42,26.35-39.85s-1.18-30-5-46.15" transform="translate(-185.92 -280.21)"/><path d="M263.53,414.5c-1.45,10.92-3.13,22.37-3.58,33.6a77.58,77.58,0,0,0,.69,15.9,62.85,62.85,0,0,0,3.58,12.38c3.45,8.8,8.41,18.47,16.52,23.85a17,17,0,0,0,5.43,2.4c2.64.59,5.38.32,8.06.26,4.89-.09,9.78-.17,14.68-.17,2.13,0,4.27,0,6.4.09,1.82.08,4-.77,3.34-3.15V501l0,0-2.41,1.83,15,.11c4.95,0,9.93.26,14.87.1,9.46-.32,16.28-7.52,20.44-15.41,4.53-8.58,6.89-18.29,7.95-27.89,1.72-15.58-1.63-30.8-5.21-45.86-.75-3.13-5.57-1.8-4.82,1.33,3,12.78,6,25.64,5.46,38.87a77.13,77.13,0,0,1-6.31,28.19,36.43,36.43,0,0,1-6.82,10.59,17.68,17.68,0,0,1-4.45,3.45,15.24,15.24,0,0,1-4.85,1.62,37.88,37.88,0,0,1-5.11.09l-9.17-.06-17-.13a2.59,2.59,0,0,0-2.41,1.84,2.45,2.45,0,0,0,0,1.37,2.79,2.79,0,0,1,1.73-3.06c-.23.07.82,0,.63-.08s-.13,0-.17,0a8.82,8.82,0,0,0-.89,0c-1.73-.07-3.47-.08-5.21-.09-4.25,0-8.51,0-12.76.12-2.88.05-5.8.25-8.69.12a10.61,10.61,0,0,1-2-.44,8.57,8.57,0,0,1-2.11-.94,18.43,18.43,0,0,1-4.37-3.44,34.44,34.44,0,0,1-4-4.88,64.4,64.4,0,0,1-6.46-12,66,66,0,0,1-3.83-12.36,62.5,62.5,0,0,1-.81-13.53c.28-12,2.07-24,3.65-35.85.18-1.34-1.28-2.5-2.5-2.5a2.56,2.56,0,0,0-2.5,2.5Z" transform="translate(-185.92 -280.21)"/><path d="M266,417c12.26.37,24.55.15,36.82.08,15.5-.09,31-.23,46.49-.24,5.86,0,11.73,0,17.6.16,3.22.09,3.21-4.91,0-5-12.26-.38-24.56-.16-36.82-.09-15.5.09-31,.24-46.49.24-5.86,0-11.74,0-17.6-.15-3.22-.1-3.21,4.9,0,5Z" transform="translate(-185.92 -280.21)"/><path class="cls-2" d="M289.54,500.49c0,3.92.72,7.66,5.82,7.84,11.83.41,21.12,0,21.12,0l21.92.41c8.5,0,7.2-8.2,7.2-8.2" transform="translate(-185.92 -280.21)"/><path d="M287,500.49c0,3.39.62,7.1,3.71,9.07,1.83,1.17,4,1.25,6.08,1.31,2.41.08,4.83.12,7.24.13,4.27,0,8.55-.25,12.81-.21s8.45.16,12.67.24l6.64.12a25.4,25.4,0,0,0,4.53-.16c5.44-.87,8.07-6.06,7.29-11.16a2.52,2.52,0,0,0-3.08-1.74,2.55,2.55,0,0,0-1.74,3.07c-.18-1.17,0-.06,0,.4s0,.64,0,1c0,.53,0,0,0,.05-.06.22-.09.45-.14.67l-.18.6c0,.09-.07.18-.1.26-.12.33.2-.39,0-.08s-.21.4-.33.59a1.9,1.9,0,0,1-.22.33c.14-.18.19-.22,0,0s-.53.51-.37.38-.38.25-.49.31a4.37,4.37,0,0,1-.43.22c.05,0,.29-.11,0,0a7.19,7.19,0,0,1-1.21.32,21,21,0,0,1-3.2,0l-6-.11-12.68-.24c-2.82-.05-5.64.13-8.46.17-4.59.06-9.19,0-13.77-.15a5.22,5.22,0,0,1-2.11-.45,2,2,0,0,1-.87-.94s-.19-.43-.06-.11a5.08,5.08,0,0,1-.17-.51,7.91,7.91,0,0,1-.25-1.07c0-.32-.11-1.59-.11-2.26,0-3.21-5-3.22-5,0Z" transform="translate(-185.92 -280.21)"/><path class="cls-1" d="M292.3,409.2c7.94,1.2,14.66-5.77,22.06-2.64,3.35,1.42,5.59,4.76,6.55,8.27s.8,7.22.55,10.85a216.66,216.66,0,0,1-11.77,56.85l-.61,0a105.82,105.82,0,0,0-11.38-65.1c-2.8-5.19-8.16-13.41-11.68-7.06" transform="translate(-185.92 -280.21)"/><path class="cls-3" d="M287.81,409.78l.63-.82c.69.17,1.2,1.2,1.25,1.23s-.05,0,.27.39a2.86,2.86,0,0,0,.42.51,26.08,26.08,0,0,1,3.26,4.32,80.94,80.94,0,0,1,6.94,14.14,104.43,104.43,0,0,1,7,33.15,102.13,102.13,0,0,1-.92,19.14,2.55,2.55,0,0,0,2.41,3.16l.61,0a2.55,2.55,0,0,0,2.41-1.83,220,220,0,0,0,10.53-44.33q.74-5.64,1.19-11.3a47,47,0,0,0-.1-11.55c-1.09-6.46-5.64-12.15-12.45-12.73-3.23-.28-6.4.78-9.42,1.8-2.81,1-5.87,2.11-8.89,1.7a2.58,2.58,0,0,0-3.07,1.74c-.32,1.17.4,2.9,1.74,3.08h0a20.58,20.58,0,0,0,8.82-.81c2.6-.77,5.11-1.84,7.78-2.36a8.24,8.24,0,0,1,6.74,1.35,11.18,11.18,0,0,1,3.7,6.4c.78,3.4.47,7,.22,10.44q-.4,5.43-1.08,10.83a210.25,210.25,0,0,1-3.74,21,220.61,220.61,0,0,1-6.79,23.41l2.41-1.84-.61,0,2.41,3.17a109.39,109.39,0,0,0-1.18-38.44,106.33,106.33,0,0,0-5.55-18.13c-2.19-5.35-4.62-10.87-8.05-15.56-1.54-2.09-3.41-4.41-6-5.23-3-.94-6.85.43-6.69,3.31a17.46,17.46,0,0,1,0,3l2.77,0a12.92,12.92,0,0,0,1-2.32" transform="translate(-185.92 -280.21)"/><path class="cls-1" d="M324.62,389c9.46-2.67,27.29,6.66,29.46,9.77l1.6,1.95c-.85-2.56-.57-5.33-.31-8s.47-5.47-.48-8-3.43-4.68-6.1-4.36c-3.17.38-4.81,1.58-7.92,2.3-2,.48-4.48,2-6.55,1.81-4.84-.35-9.36,2.89-11.94,7s-3.6,12.89-4.57,17.64" transform="translate(-185.92 -280.21)"/><path d="M325.29,391.4a8.86,8.86,0,0,1,2.91-.39,22.8,22.8,0,0,1,3.37.24,42.7,42.7,0,0,1,7.92,2.13,54.61,54.61,0,0,1,6.79,3c1,.52,2,1.07,2.92,1.66.4.25.81.51,1.2.79l.49.34.23.17c.29.21-.34-.28-.08-.07s.57.49.84.75c.1.09.18.2.28.3s-.28-.35-.24-.3l.41.52c.52.65,1.06,1.29,1.58,1.93,1.62,2,4.88-.15,4.18-2.44-.87-2.84-.33-5.79-.1-8.69a16,16,0,0,0-1.31-8.71,9,9,0,0,0-5.86-4.65c-2.69-.57-5.39.52-7.88,1.42-1.13.4-2.28.67-3.42,1-1.31.41-2.55,1-3.88,1.37a20.79,20.79,0,0,1-3.16.19,14,14,0,0,0-3.84.94,18.14,18.14,0,0,0-10,10.66c-1.75,4.77-2.25,9.89-3.25,14.83a2.56,2.56,0,0,0,1.75,3.08,2.52,2.52,0,0,0,3.07-1.75c.8-4,1.32-8,2.35-11.89s2.59-7.11,6-9.31a9.71,9.71,0,0,1,5.71-1.59c2.42,0,4.44-1.09,6.7-1.76s4.24-1.48,6.39-2.05c1.85-.49,3.28-.4,4.5,1.25,1.61,2.18,1.23,5.32,1,7.85-.28,3.07-.56,6.13.36,9.12l4.18-2.43c-.51-.61-1-1.29-1.53-1.86-.07-.07-.23-.23.11.14.48.55-.19-.25-.24-.3l-.25-.3a7.4,7.4,0,0,0-.71-.66,31.87,31.87,0,0,0-5.42-3.56,53.19,53.19,0,0,0-16.21-5.92,21.49,21.49,0,0,0-9.24.1c-3.11.83-1.79,5.66,1.33,4.82Z" transform="translate(-185.92 -280.21)"/><path class="cls-1" d="M343.09,393.25c-2.45,7.44-2.62,9.19-1.71,17" transform="translate(-185.92 -280.21)"/><path class="cls-3" d="M340.68,392.58a43.15,43.15,0,0,0-2.19,8.93c-.31,2.9.29,7.39.63,10.27H344c-.09-2.83-.75-7.24-.48-10.07,0-.22.12-.86,0-.3l.15-.88q.18-.94.42-1.86c.41-1.61.92-3.18,1.44-4.76a2.5,2.5,0,0,0-4.82-1.33Z" transform="translate(-185.92 -280.21)"/></svg>