<svg xmlns="http://www.w3.org/2000/svg" viewBox="0 0 240.42 230.97"><defs><style>.cls-1{fill:#429a86;}.cls-2,.cls-4{fill:#212e50;}.cls-3{fill:#eada85;}.cls-4{stroke:#212e50;stroke-miterlimit:10;}</style></defs><g id="Layer_5" data-name="Layer 5"><path class="cls-1" d="M88.07,428c8.15,1.32,16.51-1.11,23.91-4.77s14.13-8.55,21.32-12.63,15.08-7.41,23.34-7.5,19.92,3.08,24,10.27a38.81,38.81,0,0,0-53.23-21.78c-16,7.65-24.81,25-38.73,36" transform="translate(-85.58 -282.6)"/><path class="cls-2" d="M87.4,430.44c15.28,2.34,28.49-6.14,40.86-13.86,5.9-3.68,12-7.29,18.65-9.33a34.27,34.27,0,0,1,17.49-.81c5.25,1.14,11.28,3.44,14.07,8.23,1.38,2.37,5.57.8,4.57-1.93a41.42,41.42,0,0,0-61.28-20.85c-6.49,4.11-11.84,9.69-16.9,15.41-5.7,6.44-11.19,13.15-18,18.53a2.52,2.52,0,0,0,0,3.53,2.56,2.56,0,0,0,3.54,0c11.33-9,18.9-21.84,30.34-30.7a38.09,38.09,0,0,1,20.54-8.19A36.34,36.34,0,0,1,163.58,396a36.85,36.85,0,0,1,14.64,18.09l4.57-1.93c-2.87-4.91-8.13-7.82-13.39-9.53a39.15,39.15,0,0,0-17.82-1.54c-15,2.2-26.6,12.67-39.63,19.41-7,3.64-15.2,6.37-23.22,5.14a2.58,2.58,0,0,0-3.07,1.75,2.51,2.51,0,0,0,1.74,3.07Z" transform="translate(-85.58 -282.6)"/><path class="cls-1" d="M203.22,394.11a76.91,76.91,0,0,0-89.3-50.83,80.68,80.68,0,0,1,40.84,18.28c11.53,9.78,20.41,26.71,24.89,41.15.8,7.32,0,4.07,1.12,10,.62,3.3,2.11,6.6,4.88,8.49,3.39,2.32,7.83,2.16,11.93,1.91l55.16-3.34.75-1.3c11.94-29.44,38.79-51.87,70.05-57.54h0A62.89,62.89,0,0,0,281,354.24c-14.36,2.87-32.11,11.87-41.19,23.37l-4.28,9.65c7.7-11.51,15.29-66.56,3.06-102.12-10.17,7-19.36,22.31-20.18,34.64-4.62-14.37-8.64-21-16.85-33.65h0c-6.29,25.81-10.43,60.89-8.46,87.39" transform="translate(-85.58 -282.6)"/><path class="cls-2" d="M205.63,393.44A79.38,79.38,0,0,0,140,339.7a79.39,79.39,0,0,0-26.71,1.17c-2.29.49-2.47,4.47,0,4.82,18.47,2.61,36.76,11.74,48.27,26.68A97.63,97.63,0,0,1,175,396.91a53.24,53.24,0,0,1,2.13,6.11,24.13,24.13,0,0,1,.44,4.66A30.15,30.15,0,0,0,179,415.8c1.59,4.71,5,8.35,9.94,9.43s10.5.25,15.61-.06l34.53-2.09,8.7-.53,4-.24c1.5-.09,2.52-.29,3.34-1.64a46.67,46.67,0,0,0,2.32-5c.88-1.89,1.82-3.76,2.82-5.59a93.3,93.3,0,0,1,15-20.35,91.86,91.86,0,0,1,42.84-25c2-.52,4.06-1,6.12-1.34s2.38-3.58.59-4.57a65.8,65.8,0,0,0-48.42-6,86.12,86.12,0,0,0-21.1,8.85c-6.3,3.69-12.4,8.24-17,14-1.23,1.54-1.86,3.59-2.65,5.38L233.39,386a2.5,2.5,0,0,0,4.32,2.52c2.3-3.49,3.53-7.8,4.59-11.8a146.86,146.86,0,0,0,3.51-18.83,199.85,199.85,0,0,0,.68-47.33A121.62,121.62,0,0,0,241,284.47c-.48-1.41-2.27-2.47-3.68-1.49a51.43,51.43,0,0,0-14.48,16.23,47.88,47.88,0,0,0-6.93,20.57l4.91-.67a118.18,118.18,0,0,0-7.25-17.91c-2.92-5.65-6.39-11-9.85-16.33-1.12-1.73-4-1.59-4.57.59a320.46,320.46,0,0,0-9,69.55c-.11,6.17,0,12.35.46,18.51a2.56,2.56,0,0,0,2.5,2.5,2.52,2.52,0,0,0,2.5-2.5,234.88,234.88,0,0,1,.23-33.66A338.58,338.58,0,0,1,200.2,305c1.08-6.09,2.33-12.15,3.79-18.16l-4.56.6c3.39,5.24,6.8,10.49,9.68,16a109.61,109.61,0,0,1,6.91,17,2.51,2.51,0,0,0,4.91-.66c.46-6.38,3-12.58,6.24-18a45.69,45.69,0,0,1,12.7-14.43l-3.67-1.5c5,14.72,6.42,30.55,6.34,46-.07,13.94-1.25,27.9-4.52,41.43a75.53,75.53,0,0,1-2.32,7.92c-.19.52-.4,1-.6,1.56,0,.12-.19.44.05-.12L235,383l-.3.66a18.31,18.31,0,0,1-1.29,2.34l4.32,2.52c1.36-3.07,2.86-6.11,4.1-9.24.05-.13.11-.26.17-.39-.26.55.13-.15.28-.33.3-.36.6-.71.92-1.06a45.16,45.16,0,0,1,3.58-3.61,61,61,0,0,1,8.35-6.32c12.38-7.91,27-12.8,41.77-11.9a60.47,60.47,0,0,1,25.4,7.4l.6-4.57a94,94,0,0,0-35.72,14.74A99.93,99.93,0,0,0,260,400.78a93.82,93.82,0,0,0-5.44,9.36c-.83,1.65-1.62,3.32-2.35,5-.19.43-.38.87-.56,1.31l-.27.64c-.08.2-.24.48-.05.13-.24.43-.49.84-.73,1.26l2.16-1.24-43.23,2.62-10.44.63c-2.89.17-5.95.53-8.81-.09a8.19,8.19,0,0,1-5.79-4.38,22.39,22.39,0,0,1-1.79-6.81c-.13-.78,0,.4,0-.25,0-.21,0-.42-.05-.63,0-.55,0-1.11-.08-1.66q-.11-1.53-.27-3.06a19.38,19.38,0,0,0-1.12-4.42,114.51,114.51,0,0,0-6.85-15.95,94.27,94.27,0,0,0-9.81-15.17,66.41,66.41,0,0,0-12.39-11.82,82.69,82.69,0,0,0-37.5-15.39v4.82a75.72,75.72,0,0,1,44,3.93,73.87,73.87,0,0,1,31.77,25,74.74,74.74,0,0,1,10.47,20.17c1,3,5.86,1.74,4.83-1.33Z" transform="translate(-85.58 -282.6)"/><path class="cls-1" d="M218.33,319.9a150.34,150.34,0,0,1,5.25,56.37" transform="translate(-85.58 -282.6)"/><path class="cls-2" d="M215.92,320.56a149.55,149.55,0,0,1,5.16,55.71,2.51,2.51,0,0,0,2.5,2.5,2.55,2.55,0,0,0,2.5-2.5,153.5,153.5,0,0,0-5.34-57c-.89-3.08-5.72-1.77-4.82,1.33Z" transform="translate(-85.58 -282.6)"/></g><g id="Layer_3" data-name="Layer 3"><path class="cls-3" d="M165.69,416.88c-1.75,13.18-5.13,35.47-3,48.6s13.23,37.7,26.53,37.4c25.3-.58,26.75,0,26.7-.17s0,0,0,0l29.34.21c16.55,0,24.35-23.42,26.35-39.85s-1.18-30-5-46.15" transform="translate(-85.58 -282.6)"/><path class="cls-2" d="M163.19,416.88c-1.45,10.92-3.13,22.38-3.58,33.6a76.85,76.85,0,0,0,.69,15.9,62.65,62.65,0,0,0,3.58,12.38c3.45,8.81,8.41,18.48,16.52,23.85a16.52,16.52,0,0,0,5.43,2.4c2.64.6,5.38.32,8.06.27,4.89-.1,9.78-.18,14.68-.18,2.13,0,4.27,0,6.4.1,1.82.07,4-.78,3.34-3.15v1.32l0,0-2.41,1.84,15,.11c4.94,0,9.92.25,14.87.09,9.45-.31,16.28-7.52,20.44-15.4,4.53-8.59,6.89-18.3,8-27.9,1.72-15.57-1.63-30.79-5.21-45.85-.75-3.13-5.57-1.81-4.83,1.33,3.05,12.78,6,25.63,5.47,38.86a77.24,77.24,0,0,1-6.31,28.19,36.3,36.3,0,0,1-6.82,10.59,17.4,17.4,0,0,1-4.45,3.45,15.27,15.27,0,0,1-4.85,1.63,39.59,39.59,0,0,1-5.11.09l-9.17-.07-17-.12a2.58,2.58,0,0,0-2.41,1.83,2.46,2.46,0,0,0,0,1.37,2.77,2.77,0,0,1,1.73-3.05c-.23.06.81,0,.63-.09a.49.49,0,0,0-.17,0,6.63,6.63,0,0,0-.89,0c-1.73-.06-3.47-.08-5.21-.08-4.25,0-8.51,0-12.76.11-2.89,0-5.8.25-8.69.13a10.61,10.61,0,0,1-2-.44A8.79,8.79,0,0,1,184,499a18.68,18.68,0,0,1-4.37-3.44,35.1,35.1,0,0,1-4-4.89,63.74,63.74,0,0,1-6.46-12,67,67,0,0,1-3.84-12.36,63.88,63.88,0,0,1-.81-13.54c.29-12,2.07-24,3.66-35.85.18-1.34-1.28-2.5-2.5-2.5a2.57,2.57,0,0,0-2.5,2.5Z" transform="translate(-85.58 -282.6)"/><path class="cls-2" d="M165.69,419.38c12.26.38,24.55.16,36.82.09,15.49-.09,31-.24,46.48-.25,5.87,0,11.74,0,17.61.16,3.21.1,3.21-4.9,0-5-12.27-.37-24.56-.16-36.82-.08-15.5.08-31,.23-46.49.24-5.87,0-11.74,0-17.6-.16-3.22-.1-3.22,4.9,0,5Z" transform="translate(-85.58 -282.6)"/><path class="cls-3" d="M189.2,502.88c0,3.92.72,7.65,5.82,7.83,11.83.42,21.12,0,21.12,0l21.92.41c8.5,0,7.2-8.2,7.2-8.2" transform="translate(-85.58 -282.6)"/><path class="cls-2" d="M186.7,502.88c0,3.39.62,7.09,3.71,9.06,1.83,1.18,4,1.26,6.08,1.32,2.41.07,4.83.11,7.24.12,4.27,0,8.54-.25,12.81-.2s8.44.16,12.67.24l6.63.12a24.61,24.61,0,0,0,4.54-.17c5.44-.87,8.07-6.05,7.29-11.15a2.52,2.52,0,0,0-3.08-1.75,2.56,2.56,0,0,0-1.74,3.08c-.18-1.17,0-.06,0,.39s0,.64,0,1c0,.53,0,0,0,.05-.06.22-.09.45-.15.68s-.11.4-.18.6a2.67,2.67,0,0,1-.09.26c-.13.33.2-.39,0-.08s-.21.39-.33.59a2.27,2.27,0,0,1-.22.32c.13-.17.18-.21,0,0s-.53.51-.37.38-.38.24-.49.31l-.43.22s.29-.11,0,0a7.19,7.19,0,0,1-1.21.32,19.84,19.84,0,0,1-3.2,0l-6-.11-12.68-.23c-2.82-.06-5.64.13-8.46.16-4.59.06-9.19,0-13.77-.14a5.4,5.4,0,0,1-2.11-.45,2,2,0,0,1-.87-.95s-.2-.42-.07-.11c-.06-.16-.11-.34-.16-.5a8,8,0,0,1-.25-1.08c-.05-.31-.11-1.59-.11-2.25,0-3.22-5-3.23-5,0Z" transform="translate(-85.58 -282.6)"/></g><g id="Layer_6" data-name="Layer 6"><path class="cls-1" d="M192,411.58c7.94,1.21,14.66-5.77,22.06-2.63,3.35,1.42,5.59,4.75,6.54,8.27s.81,7.22.55,10.85a216.32,216.32,0,0,1-11.76,56.85l-.62,0a105.8,105.8,0,0,0-11.37-65.1c-2.8-5.2-8.16-13.41-11.68-7.07" transform="translate(-85.58 -282.6)"/><path class="cls-4" d="M187.47,412.17l.63-.82c.69.16,1.2,1.19,1.25,1.23s0,0,.26.39a3.8,3.8,0,0,0,.43.5,26.18,26.18,0,0,1,3.26,4.33,80.6,80.6,0,0,1,6.94,14.14,104.37,104.37,0,0,1,7,33.14,101.22,101.22,0,0,1-.93,19.14,2.55,2.55,0,0,0,2.41,3.17l.62,0a2.57,2.57,0,0,0,2.41-1.84,221.24,221.24,0,0,0,10.53-44.33q.74-5.62,1.18-11.29a46.58,46.58,0,0,0-.09-11.56c-1.09-6.46-5.64-12.15-12.45-12.73-3.23-.27-6.4.78-9.42,1.8-2.81.95-5.87,2.11-8.89,1.7a2.59,2.59,0,0,0-3.07,1.75c-.32,1.16.4,2.89,1.74,3.07h0a20.45,20.45,0,0,0,8.82-.81c2.6-.77,5.11-1.84,7.78-2.36a8.32,8.32,0,0,1,6.74,1.35,11.21,11.21,0,0,1,3.7,6.4c.78,3.4.47,7,.22,10.44q-.41,5.43-1.08,10.84a208,208,0,0,1-3.75,21,218.73,218.73,0,0,1-6.78,23.4l2.41-1.83-.62,0,2.42,3.16A109.34,109.34,0,0,0,210,447.12,106.08,106.08,0,0,0,204.41,429c-2.18-5.35-4.61-10.88-8-15.56-1.53-2.1-3.4-4.42-6-5.24-2.94-.93-6.84.44-6.69,3.31a16.58,16.58,0,0,1,0,3l2.77,0a12.8,12.8,0,0,0,1-2.31" transform="translate(-85.58 -282.6)"/><path class="cls-1" d="M224.28,391.37c9.46-2.66,27.29,6.67,29.46,9.78l1.6,1.94c-.85-2.55-.57-5.33-.32-8s.48-5.47-.47-8-3.43-4.68-6.1-4.36c-3.17.38-4.81,1.58-7.92,2.31-2,.47-4.48,1.95-6.56,1.8-4.83-.34-9.35,2.9-11.93,7s-3.6,12.88-4.57,17.63" transform="translate(-85.58 -282.6)"/><path class="cls-2" d="M224.94,393.78a9,9,0,0,1,2.92-.38,22.88,22.88,0,0,1,3.37.23,44.32,44.32,0,0,1,7.92,2.13,53.86,53.86,0,0,1,6.79,3c1,.52,2,1.07,2.91,1.66.41.25.81.51,1.21.78l.49.35.23.16c.29.21-.34-.27-.09-.06s.57.48.85.74c.1.1.18.21.28.31s-.28-.36-.24-.31.27.35.41.53c.52.65,1,1.28,1.58,1.92,1.62,2,4.88-.15,4.18-2.43-.87-2.84-.33-5.8-.11-8.7a16,16,0,0,0-1.3-8.71,9,9,0,0,0-5.86-4.65c-2.69-.56-5.39.52-7.88,1.42-1.13.41-2.28.68-3.42,1-1.31.4-2.55,1-3.88,1.36a19.63,19.63,0,0,1-3.17.2,13.69,13.69,0,0,0-3.83.94,18.14,18.14,0,0,0-10,10.66c-1.75,4.76-2.26,9.88-3.25,14.83a2.55,2.55,0,0,0,1.74,3.07,2.52,2.52,0,0,0,3.08-1.74c.8-4,1.31-8,2.34-11.9,1-3.76,2.6-7.11,6-9.31a9.9,9.9,0,0,1,5.71-1.59c2.43,0,4.45-1.09,6.71-1.75s4.23-1.48,6.39-2c1.85-.49,3.28-.41,4.49,1.24,1.62,2.18,1.24,5.33,1,7.85-.28,3.07-.56,6.13.36,9.13l4.18-2.43c-.51-.62-1-1.29-1.53-1.87-.07-.07-.23-.23.1.15.49.54-.19-.26-.23-.31a3.47,3.47,0,0,0-.25-.29,8.94,8.94,0,0,0-.71-.67,32.48,32.48,0,0,0-5.42-3.56,53.19,53.19,0,0,0-16.21-5.92,21.53,21.53,0,0,0-9.25.1c-3.1.84-1.78,5.66,1.33,4.82Z" transform="translate(-85.58 -282.6)"/><path class="cls-1" d="M242.75,395.63c-2.45,7.45-2.62,9.2-1.71,17" transform="translate(-85.58 -282.6)"/><path class="cls-4" d="M240.34,395a43.66,43.66,0,0,0-2.2,8.93c-.3,2.9.3,7.39.64,10.27h4.83c-.09-2.84-.76-7.24-.48-10.08,0-.21.12-.86,0-.3,0-.29.09-.58.15-.88q.18-.93.42-1.86c.41-1.6.92-3.18,1.44-4.75a2.5,2.5,0,1,0-4.82-1.33Z" transform="translate(-85.58 -282.6)"/></g></svg>